<svg width="230" height="50" viewBox="0 0 230 50" fill="none" xmlns="http://www.w3.org/2000/svg">
<path d="M22.0501 17.2817L2 17.2817L2 21.2116L10.959 21.2116L10.959 30.8169C10.959 31.9412 11.8787 32.855 13.0161 32.855C14.1534 32.855 15.0731 31.9437 15.0731 30.8169L15.0731 21.2116L22.0501 21.2116C23.1461 21.2116 24.0321 20.3312 24.0321 19.248C24.0321 18.1647 23.1435 17.2843 22.0501 17.2843L22.0501 17.2817Z" fill="#202020"/>
<path d="M71.0333 17.1367L52.2319 17.1367L52.2319 30.9619C52.2319 32.0862 53.1517 33 54.289 33C55.4264 33 56.3461 32.0888 56.3461 30.9619L56.3461 29.5065L73.0904 29.5065L73.0904 19.1748C73.0904 18.0505 72.1707 17.1367 71.0333 17.1367ZM56.3435 25.5766L56.3435 21.0666L68.9762 21.0666L68.9762 25.5766L56.3435 25.5766Z" fill="#202020"/>
<path d="M45.7687 17.2817L26.9673 17.2817L26.9673 30.0879C26.9673 31.2121 27.887 32.126 29.0244 32.126L47.8258 32.126L47.8258 19.3198C47.8258 18.1955 46.906 17.2817 45.7687 17.2817ZM31.0815 28.1961L31.0815 21.2116L43.7142 21.2116L43.7142 28.1961L31.0815 28.1961Z" fill="#202020"/>
<path d="M120.384 17.2817L101.583 17.2817L101.583 30.0879C101.583 31.2121 102.503 32.126 103.64 32.126L122.441 32.126L122.441 19.3198C122.441 18.1955 121.522 17.2817 120.384 17.2817ZM105.697 28.1961L105.697 21.2116L118.33 21.2116L118.33 28.1961L105.697 28.1961Z" fill="#202020"/>
<path d="M95.7814 17.2817L77.4956 17.2817L77.4956 30.016C77.5345 31.1069 78.4387 31.9797 79.5501 31.9797L97.1753 31.9797L97.1753 28.0498L81.6072 28.0498L81.6072 21.2091L95.7814 21.2091C96.8773 21.2091 97.7634 20.3286 97.7634 19.2454C97.7634 18.1622 96.8747 17.2817 95.7814 17.2817Z" fill="#202020"/>
<path d="M127.245 17.4873L130.443 17.4873L137.471 29.7531L144.498 17.4873L147.697 17.4873L147.697 31.9951L144.993 31.9951L144.993 21.6909L139.119 31.9951L135.828 31.9951L129.953 21.6909L129.953 31.9951L127.25 31.9951L127.25 17.4873L127.245 17.4873Z" fill="#202020"/>
<path d="M150.509 17.4873L168.834 17.4873L168.834 19.7292L153.207 19.7292L153.207 21.9496L168.595 21.9496L168.595 24.1914L153.207 24.1914L153.207 29.7531L168.834 29.7531L168.834 31.995L150.509 31.995L150.509 17.4873Z" fill="#202020"/>
<path d="M171.425 17.4873L183.62 17.4873C188.037 17.4873 190.692 20.225 190.692 24.7519C190.692 29.2788 188.037 31.995 183.62 31.995L171.425 31.995L171.425 17.4873ZM174.123 19.7238L174.123 29.7477L183.055 29.7477C186.133 29.7477 188.059 27.8291 188.059 24.7465C188.059 21.6639 186.133 19.7238 183.055 19.7238L174.123 19.7238Z" fill="#202020"/>
<path d="M193.746 17.4873L204.554 17.4873L204.554 19.643L200.464 19.643L200.464 29.8393L204.788 29.8393L204.788 31.995L193.512 31.995L193.512 29.8393L197.815 29.8393L197.815 19.643L193.752 19.643L193.752 17.4873L193.746 17.4873Z" fill="#202020"/>
<path d="M228.287 31.9886L225.279 31.9886L222.505 27.548L212.447 27.548L209.673 31.9886L206.665 31.9886L215.711 17.481L219.236 17.481L228.281 31.9886L228.287 31.9886ZM213.834 25.3061L221.096 25.3061L217.479 19.4857L213.834 25.3061Z" fill="#202020"/>
</svg>
